<svg xmlns="http://www.w3.org/2000/svg" width="900" height="200"><path fill="#3B4859" d="M0 0h900v200H0z"/><path fill="#3b4859" d="m0 146 10-1.5c10-1.5 30-4.5 50-.8 20 3.6 40 14 60 15.8s40-4.8 60-11 40-11.8 60-12.5 40 3.7 60 4.3c20 .7 40-2.3 60-3.5 20-1.1 40-.5 60 3.9 20 4.3 40 12.3 60 16.5 20 4.1 40 4.5 60 2.1 20-2.3 40-7.3 60-7.1 20 .1 40 5.5 60 5.5s40-5.4 60-6c20-.7 40 3.3 60 2.8s40-5.5 60-4.5 40 8 50 11.5l10 3.5V0H0Z"/><path fill="#394657" d="m0 118 10 4.2c10 4.1 30 12.5 50 13.1 20 .7 40-6.3 60-7.3s40 4 60 7.5 40 5.5 60 2.8c20-2.6 40-10 60-9.8s40 7.8 60 10.2c20 2.3 40-.7 60-2.5 20-1.9 40-2.5 60-7.4 20-4.8 40-13.8 60-11.3s40 16.5 60 19.3c20 2.9 40-5.5 60-11.8s40-10.7 60-11.8c20-1.2 40 .8 60 .3s40-3.5 60 1.7c20 5.1 40 18.5 50 25.1l10 6.7V0H0Z"/><path fill="#364454" d="m0 102 10-2.3c10-2.4 30-7 50-6.9 20 .2 40 5.2 60 12.2s40 16 60 15.5 40-10.5 60-17.3c20-6.9 40-10.5 60-11.7s40 .2 60 5.2 40 13.6 60 18.8 40 6.8 60 2.3 40-15.1 60-15.8 40 8.7 60 13.5 40 5.2 60 .2 40-15.4 60-20.4 40-4.6 60 1.4 40 17.6 60 22.3 40 2.3 50 1.2l10-1.2V0H0Z"/><path fill="#344252" d="m0 95 10-3.5C20 88 40 81 60 81.2c20 .1 40 7.5 60 13.1 20 5.7 40 9.7 60 8.9 20-.9 40-6.5 60-7s40 4.1 60 6.5c20 2.3 40 2.3 60 1.6 20-.6 40-2 60-1.1 20 .8 40 3.8 60 4.8s40 0 60-4.5 40-12.5 60-14.3c20-1.9 40 2.5 60 6.8s40 8.7 60 5.5 40-13.8 60-15.7c20-1.8 40 5.2 60 9.5 20 4.4 40 6 50 6.9l10 .8V0H0Z"/><path fill="#324050" d="m0 92 10-2.2c10-2.1 30-6.5 50-11.3s40-10.2 60-8.3C140 72 160 81 180 82s40-6 60-10.5 40-6.5 60-4 40 9.5 60 10.3c20 .9 40-4.5 60-5.5s40 2.4 60 1.5c20-.8 40-5.8 60-6.8s40 2 60 3.2c20 1.1 40 .5 60 3.5s40 9.6 60 7.6 40-12.6 60-17.1 40-2.9 60-.5c20 2.3 40 5.3 50 6.8l10 1.5V0H0Z"/><path fill="#303e4e" d="m0 64 10 .3c10 .4 30 1 50-.1 20-1.2 40-4.2 60-7.4 20-3.1 40-6.5 60-9s40-4.1 60 0c20 4.2 40 14.2 60 17 20 2.9 40-1.5 60-3.8q30-3.45 60-1.2c20 1.5 40 4.9 60 2.5 20-2.3 40-10.3 60-10.6 20-.4 40 7 60 8.1 20 1.2 40-3.8 60-3.8s40 5 60 5.2c20 .1 40-4.5 60-4.7s40 4.2 60 2.8c20-1.3 40-8.3 50-11.8l10-3.5V0H0Z"/><path fill="#2e3c4c" d="m0 48 10-1.8c10-1.9 30-5.5 50-6s40 2.1 60 2.1 40-2.6 60-4.8 40-3.8 60-5 40-1.8 60 1.2 40 9.6 60 10.6 40-3.6 60-7.5c20-3.8 40-6.8 60-5.3s40 7.5 60 7.3c20-.1 40-6.5 60-6.5s40 6.4 60 9.2 40 2.2 60-.8 40-8.4 60-8.5c20-.2 40 4.8 60 4.8s40-5 50-7.5l10-2.5V0H0Z"/><path fill="#2c3a4a" d="m0 15 10 1c10 1 30 3 50 5.3 20 2.4 40 5 60 6.7s40 2.3 60 1.5 40-3.2 60-3.5 40 1.3 60 1.5 40-1.2 60-1.2 40 1.4 60 .2 40-4.8 60-6.3 40-.9 60 .6 40 3.9 60 4.5c20 .7 40-.3 60-1.3s40-2 60-1.3c20 .6 40 3 60 1.6 20-1.3 40-6.3 60-8.6 20-2.4 40-2 50-1.9l10 .2V0H0Z"/></svg>