<svg xmlns="http://www.w3.org/2000/svg" width="900" height="200"><path fill="#001220" d="M0 0h900v200H0z"/><path fill="#330a00" d="m0 130 11.5.3c11.5.4 34.5 1 57.5.5s46-2.1 69.2-3.5c23.1-1.3 46.5-2.3 69.6-.8C231 128 254 132 277 128.7c23-3.4 46-14 69-15.4 23-1.3 46 6.7 69.2 8.4 23.1 1.6 46.5-3 69.6-3.4 23.2-.3 46.2 3.7 69.2 6.9 23 3.1 46 5.5 69 6s46-.9 69.2-5c23.1-4.2 46.5-11.2 69.6-16.5 23.2-5.4 46.2-9 69.2-7s46 9.6 57.5 13.5L900 120V0H0Z"/><path fill="#460e0e" d="m0 108 11.5-2C23 104 46 100 69 98.5s46-.5 69.2 1c23.1 1.5 46.5 3.5 69.6 5.7 23.2 2.1 46.2 4.5 69.2 1.1 23-3.3 46-12.3 69-13.6 23-1.4 46 5 69.2 6 23.1 1 46.5-3.4 69.6-3.5C508 95 531 99 554 99.5s46-2.5 69-3 46 1.5 69.2 4.3c23.1 2.9 46.5 6.5 69.6 4.7 23.2-1.8 46.2-9.2 69.2-12.2s46-1.6 57.5-1l11.5.7V0H0Z"/><path fill="#5b1218" d="m0 99 11.5-.2C23 98.7 46 98.3 69 94.3s46-11.6 69.2-13.6c23.1-2 46.5 1.6 69.6 5.3 23.2 3.7 46.2 7.3 69.2 9.2 23 1.8 46 1.8 69-2.5 23-4.4 46-13 69.2-17 23.1-4 46.5-3.4 69.6-4.2 23.2-.8 46.2-3.2 69.2-2s46 5.8 69 10.2c23 4.3 46 8.3 69.2 11.1 23.1 2.9 46.5 4.5 69.6 2.5 23.2-2 46.2-7.6 69.2-11.5 23-3.8 46-5.8 57.5-6.8l11.5-1V0H0Z"/><path fill="#711423" d="m0 71 11.5-.7c11.5-.6 34.5-2 57.5-4.5s46-6.1 69.2-3.6c23.1 2.5 46.5 11.1 69.6 10.5C231 72 254 62 277 57.8c23-4.1 46-2.5 69 1.5s46 10.4 69.2 13.7c23.1 3.3 46.5 3.7 69.6 4 23.2.3 46.2.7 69.2-3.7 23-4.3 46-13.3 69-13.5 23-.1 46 8.5 69.2 13.2 23.1 4.7 46.5 5.3 69.6 3.3 23.2-2 46.2-6.6 69.2-7.1s46 3.1 57.5 5L900 76V0H0Z"/><path fill="#88152f" d="m0 51 11.5-.7c11.5-.6 34.5-2 57.5-2.1 23-.2 46 .8 69.2 2.8 23.1 2 46.5 5 69.6 4.5C231 55 254 51 277 51.7c23 .6 46 6 69 5.5s46-6.9 69.2-7.2c23.1-.3 46.5 5.3 69.6 5 23.2-.3 46.2-6.7 69.2-7.2s46 4.9 69 7.2 46 1.7 69.2 1.8c23.1.2 46.5 1.2 69.6-1.6C785 52.3 808 45.7 831 45s46 4.7 57.5 7.3L900 55V0H0Z"/><path fill="#9f163d" d="m0 44 11.5-2C23 40 46 36 69 32.8c23-3.1 46-5.5 69.2-4.8 23.1.7 46.5 4.3 69.6 5.7C231 35 254 34 277 35.2c23 1.1 46 4.5 69 5.6 23 1.2 46 .2 69.2 0 23.1-.1 46.5.5 69.6-2 23.2-2.5 46.2-8.1 69.2-7.5 23 .7 46 7.7 69 10.2s46 .5 69.2-.7c23.1-1.1 46.5-1.5 69.6-4.1C785 34 808 29 831 26.8c23-2.1 46-1.5 57.5-1.1l11.5.3V0H0Z"/><path fill="#b7154c" d="m0 21 11.5.5C23 22 46 23 69 22.3c23-.6 46-3 69.2-3.3 23.1-.3 46.5 1.3 69.6 2.3 23.2 1 46.2 1.4 69.2 1 23-.3 46-1.3 69-1.6 23-.4 46 0 69.2-.7 23.1-.7 46.5-2.3 69.6-1.2C508 20 531 24 554 24s46-4 69-4.8c23-.9 46 1.5 69.2 1.8 23.1.3 46.5-1.3 69.6-2.8 23.2-1.5 46.2-2.9 69.2-3.9s46-1.6 57.5-2L900 12V0H0Z"/></svg>