<svg xmlns="http://www.w3.org/2000/svg" width="900" height="200"><path fill="#001222" d="M0 0h900v200H0z"/><path fill="#001222" d="m0 91 11.5-4.5C23 82 46 73 69 72.2c23-.9 46 6.5 69.2 6.5 23.1 0 46.5-7.4 69.6-6.4C231 73.3 254 82.7 277 85s46-2.3 69-2.5 46 4.2 69.2 2.8c23.1-1.3 46.5-8.3 69.6-10.5 23.2-2.1 46.2.5 69.2 4.2s46 8.3 69 5.8 46-12.1 69.2-13.8c23.1-1.7 46.5 4.7 69.6 10.7C785 87.7 808 93.3 831 95s46-.7 57.5-1.8L900 92v109H0Z"/><path fill="#081928" d="m0 97 11.5 1.3c11.5 1.4 34.5 4 57.5 6.9 23 2.8 46 5.8 69.2 2.1 23.1-3.6 46.5-14 69.6-16.6C231 88 254 93 277 95.7c23 2.6 46 3 69 .1C369 93 392 87 415.2 85c23.1-2 46.5 0 69.6 1 23.2 1 46.2 1 69.2 1.2 23 .1 46 .5 69 1s46 1.1 69.2 3c23.1 1.8 46.5 4.8 69.6 8.8 23.2 4 46.2 9 69.2 11.2 23 2.1 46 1.5 57.5 1.1l11.5-.3v89H0Z"/><path fill="#101f2f" d="m0 120 11.5-1.3c11.5-1.4 34.5-4 57.5-7.7s46-8.3 69.2-7.7c23.1.7 46.5 6.7 69.6 12.2C231 121 254 126 277 125.3c23-.6 46-7 69-9s46 .4 69.2 3.2c23.1 2.8 46.5 6.2 69.6 7.3 23.2 1.2 46.2.2 69.2-3.1 23-3.4 46-9 69-11s46-.4 69.2 3.5c23.1 3.8 46.5 9.8 69.6 7.3C785 121 808 110 831 104.7c23-5.4 46-5 57.5-4.9l11.5.2v101H0Z"/><path fill="#172635" d="M0 139h11.5c11.5 0 34.5 0 57.5.5s46 1.5 69.2-1.3c23.1-2.9 46.5-9.5 69.6-14 23.2-4.5 46.2-6.9 69.2-2.9s46 14.4 69 18.9 46 3.1 69.2 1c23.1-2.2 46.5-5.2 69.6-4.5 23.2.6 46.2 5 69.2 4s46-7.4 69-7.4 46 6.4 69.2 8.4c23.1 2 46.5-.4 69.6-2.2 23.2-1.8 46.2-3.2 69.2-4.7s46-3.1 57.5-4l11.5-.8v71H0Z"/><path fill="#1e2d3c" d="m0 149 11.5 1.2c11.5 1.1 34.5 3.5 57.5 4.1 23 .7 46-.3 69.2-2.5 23.1-2.1 46.5-5.5 69.6-5.8 23.2-.3 46.2 2.3 69.2 3.8s46 1.9 69 2.4 46 1.1 69.2.1c23.1-1 46.5-3.6 69.6-4.1 23.2-.5 46.2 1.1 69.2 3.6s46 5.9 69 3.5c23-2.3 46-10.3 69.2-13.6 23.1-3.4 46.5-2 69.6-2.2 23.2-.2 46.2-1.8 69.2-2.8s46-1.4 57.5-1.5l11.5-.2v66H0Z"/><path fill="#253343" d="m0 168 11.5-2.5C23 163 46 158 69 156.5s46 .5 69.2.5c23.1 0 46.5-2 69.6-3 23.2-1 46.2-1 69.2 2.2 23 3.1 46 9.5 69 9.5s46-6.4 69.2-6.4c23.1 0 46.5 6.4 69.6 7.2 23.2.8 46.2-3.8 69.2-4.7 23-.8 46 2.2 69 4.4 23 2.1 46 3.5 69.2 2.5 23.1-1 46.5-4.4 69.6-5.9 23.2-1.5 46.2-1.1 69.2-2.5 23-1.3 46-4.3 57.5-5.8L900 153v48H0Z"/><path fill="#2c3a4a" d="m0 170 11.5 1.5C23 173 46 176 69 178.2c23 2.1 46 3.5 69.2 2 23.1-1.5 46.5-5.9 69.6-5.5 23.2.3 46.2 5.3 69.2 6 23 .6 46-3 69-2.7s46 4.7 69.2 4.2c23.1-.5 46.5-5.9 69.6-8.7 23.2-2.8 46.2-3.2 69.2-3.3 23-.2 46-.2 69-.2s46 0 69.2 1.8c23.1 1.9 46.5 5.5 69.6 6 23.2.5 46.2-2.1 69.2-1.1s46 5.6 57.5 8L900 187v14H0Z"/></svg>