<svg xmlns="http://www.w3.org/2000/svg" width="900" height="200"><path fill="#F4F3EF" d="M0 0h900v200H0z"/><path fill="#eee" d="m0 130 82-2 82-17h81l82-1 82 17 82-22 82 9 82-2 81 19 82-15 82 2v83H0Z"/><path fill="#e1f0da" d="m0 125 82-8 82 2 81 10 82 1 82-10 82 8h82l82-10h81l82 23 82-15v75H0Z"/><path fill="#d3f2c6" d="m0 133 82 17 82-19 81 7 82 9 82-2 82-4 82-12 82 7 81 10 82-5 82-10v70H0Z"/><path fill="#c5f3b2" d="M0 144h82l82 9 81-11 82 2 82 9 82-11 82 9 82 5 81 4 82 1 82-14v54H0Z"/><path fill="#b6f49e" d="m0 170 82-5 82-2 81-4 82 2 82 9 82-1 82-9 82-6 81 8 82 4 82-7v42H0Z"/><path fill="#a5f589" d="m0 171 82 3 82-7 81 7 82 4 82-5 82-2 82 2 82-6 81 4 82-5 82 4v31H0Z"/><path fill="#93f673" d="m0 182 82 8 82-7 81-4 82 6 82-6 82 4 82-4 82 1 81-2 82 6 82-5v22H0Z"/></svg>