<svg xmlns="http://www.w3.org/2000/svg" width="900" height="200"><path fill="#93f673" d="m0 43 13.7 2c13.6 2 41 6 68.3 10.7 27.3 4.6 54.7 10 81.8 14.3 27.2 4.3 54.2 7.7 81.4 9.7 27.1 2 54.5 2.6 81.8-.7s54.7-10.7 82-11 54.7 6.3 82 2.7c27.3-3.7 54.7-17.7 82-17.4 27.3.4 54.7 15 81.8 20.7 27.2 5.7 54.2 2.3 81.4-2 27.1-4.3 54.5-9.7 81.8-10s54.7 4.3 68.3 6.7L900 71V0H0Z"/><path fill="#6fc855" d="m0 57 13.7 3.3c13.6 3.4 41 10 68.3 17.4 27.3 7.3 54.7 15.3 81.8 20 27.2 4.6 54.2 6 81.4 5.6 27.1-.3 54.5-2.3 81.8-4.6 27.3-2.4 54.7-5 82-3.4 27.3 1.7 54.7 7.7 82 5.7s54.7-12 82-13 54.7 7 81.8 10.7c27.2 3.6 54.2 3 81.4 2 27.1-1 54.5-2.4 81.8-3.7s54.7-2.7 68.3-3.3L900 93V69l-13.7-2.3c-13.6-2.4-41-7-68.3-6.7s-54.7 5.7-81.8 10c-27.2 4.3-54.2 7.7-81.4 2-27.1-5.7-54.5-20.3-81.8-20.7-27.3-.3-54.7 13.7-82 17.4-27.3 3.6-54.7-3-82-2.7s-54.7 7.7-82 11-54.7 2.7-81.8.7c-27.2-2-54.2-5.4-81.4-9.7-27.1-4.3-54.5-9.7-81.8-14.3C54.7 49 27.3 45 13.7 43L0 41Z"/><path fill="#4c9c38" d="m0 77 13.7 5c13.6 5 41 15 68.3 22s54.7 11 81.8 15c27.2 4 54.2 8 81.4 12.7 27.1 4.6 54.5 10 81.8 8s54.7-11.4 82-12.7 54.7 5.3 82 7 54.7-1.7 82 1 54.7 11.3 81.8 11.7c27.2.3 54.2-7.7 81.4-13.7 27.1-6 54.5-10 81.8-9.3 27.3.6 54.7 6 68.3 8.6L900 135V91l-13.7.7c-13.6.6-41 2-68.3 3.3s-54.7 2.7-81.8 3.7c-27.2 1-54.2 1.6-81.4-2C627.7 93 600.3 85 573 86s-54.7 11-82 13-54.7-4-82-5.7c-27.3-1.6-54.7 1-82 3.4-27.3 2.3-54.7 4.3-81.8 4.6-27.2.4-54.2-1-81.4-5.6C136.7 91 109.3 83 82 75.7c-27.3-7.4-54.7-14-68.3-17.4L0 55Z"/><path fill="#2a721c" d="m0 95 13.7 5c13.6 5 41 15 68.3 24s54.7 17 81.8 20.3c27.2 3.4 54.2 2 81.4 4.4 27.1 2.3 54.5 8.3 81.8 7 27.3-1.4 54.7-10 82-9.7s54.7 9.7 82 10.7 54.7-6.4 82-5.7 54.7 9.3 81.8 12c27.2 2.7 54.2-.7 81.4-4.3 27.1-3.7 54.5-7.7 81.8-9.7s54.7-2 68.3-2H900v-14l-13.7-2.7c-13.6-2.6-41-8-68.3-8.6-27.3-.7-54.7 3.3-81.8 9.3-27.2 6-54.2 14-81.4 13.7-27.1-.4-54.5-9-81.8-11.7s-54.7.7-82-1-54.7-8.3-82-7-54.7 10.7-82 12.7-54.7-3.4-81.8-8C218 125 191 121 163.8 117c-27.1-4-54.5-8-81.8-15S27.3 85 13.7 80L0 75Z"/><path fill="#024b00" d="M0 201h900v-56h-13.7c-13.6 0-41 0-68.3 2s-54.7 6-81.8 9.7c-27.2 3.6-54.2 7-81.4 4.3-27.1-2.7-54.5-11.3-81.8-12s-54.7 6.7-82 5.7-54.7-10.4-82-10.7-54.7 8.3-82 9.7c-27.3 1.3-54.7-4.7-81.8-7-27.2-2.4-54.2-1-81.4-4.4C136.7 139 109.3 131 82 122s-54.7-19-68.3-24L0 93Z"/></svg>