<svg xmlns="http://www.w3.org/2000/svg" width="900" height="200"><path fill="#092100" d="M0 0h900v200H0z"/><path fill="#092100" d="m0 152 18.8-4.7c18.9-4.6 56.5-14 94-11.6 37.5 2.3 74.9 16.3 112.4 22.6 37.5 6.4 75.1 5 112.6-2.5s74.9-21.1 112.4-21.5c37.5-.3 75.1 12.7 112.6 18.9 37.5 6.1 74.9 5.5 112.4 5.3s75.1.2 112.6-.5 74.9-2.3 93.5-3.2l18.7-.8V0H0Z"/><path fill="#0a2601" d="m0 149 18.8-5.2c18.9-5.1 56.5-15.5 94-15.6 37.5-.2 74.9 9.8 112.4 9.1 37.5-.6 75.1-12 112.6-20s74.9-12.6 112.4-6.6 75.1 22.6 112.6 27c37.5 4.3 74.9-3.7 112.4-9.7s75.1-10 112.6-13.2c37.5-3.1 74.9-5.5 93.5-6.6L900 107V0H0Z"/><path fill="#092b02" d="m0 110 18.8.3c18.9.4 56.5 1 94 2s74.9 2.4 112.4 3.7 75.1 2.7 112.6 2.5 74.9-1.8 112.4 0 75.1 7.2 112.6 3 74.9-17.8 112.4-23.3 75.1-2.9 112.6-2.9 74.9-2.6 93.5-4L900 90V0H0Z"/><path fill="#083003" d="m0 76 18.8.7c18.9.6 56.5 2 94 6.5s74.9 12.1 112.4 13.5c37.5 1.3 75.1-3.7 112.6-7.9 37.5-4.1 74.9-7.5 112.4-6.3s75.1 6.8 112.6 8.5 74.9-.7 112.4-3.8c37.5-3.2 75.1-7.2 112.6-7.7s74.9 2.5 93.5 4L900 85V0H0Z"/><path fill="#073503" d="m0 73 18.8 2.8c18.9 2.9 56.5 8.5 94 7.2s74.9-9.7 112.4-11.5 75.1 2.8 112.6 5.7C375.3 80 412.7 81 450.2 80s75.1-4 112.6-5.8c37.5-1.9 74.9-2.5 112.4-.9 37.5 1.7 75.1 5.7 112.6 8.4 37.5 2.6 74.9 4 93.5 4.6l18.7.7V0H0Z"/><path fill="#063a03" d="m0 51 18.8 1.7c18.9 1.6 56.5 5 94 6.8s74.9 2.2 112.4 3.5 75.1 3.7 112.6 3.3c37.5-.3 74.9-3.3 112.4-5.3s75.1-3 112.6-4.3c37.5-1.4 74.9-3 112.4-1.9 37.5 1.2 75.1 5.2 112.6 9.9 37.5 4.6 74.9 10 93.5 12.6L900 80V0H0Z"/><path fill="#054002" d="m0 39 18.8 2.5c18.9 2.5 56.5 7.5 94 6.8 37.5-.6 74.9-7 112.4-10.3s75.1-3.7 112.6-.8C375.3 40 412.7 46 450.2 51s75.1 9 112.6 6.5S637.7 46 675.2 42.7c37.5-3.4 75.1-1 112.6 2.8s74.9 9.2 93.5 11.8L900 60V0H0Z"/><path fill="#034501" d="m0 23 18.8 3.5c18.9 3.5 56.5 10.5 94 12s74.9-2.5 112.4-2.2c37.5.4 75.1 5 112.6 6.9 37.5 1.8 74.9.8 112.4-.5 37.5-1.4 75.1-3 112.6-5.9 37.5-2.8 74.9-6.8 112.4-9.3s75.1-3.5 112.6-2.2c37.5 1.4 74.9 5 93.5 6.9L900 34V0H0Z"/><path fill="#024b00" d="m0 19 18.8 1c18.9 1 56.5 3 94 3s74.9-2 112.4-3.2c37.5-1.1 75.1-1.5 112.6-3.1 37.5-1.7 74.9-4.7 112.4-3 37.5 1.6 75.1 8 112.6 10.3s74.9.7 112.4.8c37.5.2 75.1 2.2 112.6 3.2s74.9 1 93.5 1H900V0H0Z"/></svg>