<svg xmlns="http://www.w3.org/2000/svg" width="900" height="200"><path fill="#001220" d="M0 0h900v200H0z"/><path fill="#212d53" d="m0 102 8.8-2.2c8.9-2.1 26.5-6.5 44.2-5.6 17.7.8 35.3 6.8 53 10.6 17.7 3.9 35.3 5.5 53 6.5s35.3 1.4 53-3.5c17.7-4.8 35.3-14.8 53-18.5 17.7-3.6 35.3-1 53 3.2s35.3 9.8 53 17.7c17.7 7.8 35.3 17.8 52.8 16.6 17.5-1.1 34.9-13.5 52.4-19.1 17.5-5.7 35.1-4.7 52.8-3.7s35.3 2 53 3.7c17.7 1.6 35.3 4 53 3.6 17.7-.3 35.3-3.3 53-6.8s35.3-7.5 53-5.5 35.3 10 53 14 35.3 4 53 1.7c17.7-2.4 35.3-7 44.2-9.4l8.8-2.3V0H0Z"/><path fill="#1c2646" d="m0 114 8.8-5c8.9-5 26.5-15 44.2-21.5s35.3-9.5 53-6.2c17.7 3.4 35.3 13 53 18.9 17.7 5.8 35.3 7.8 53 6.8s35.3-5 53-7.3c17.7-2.4 35.3-3 53-5.9C335.7 91 353.3 86 371 83s35.3-4 52.8 1.2c17.5 5.1 34.9 16.5 52.4 19.3s35.1-2.8 52.8-4.2c17.7-1.3 35.3 1.7 53 0 17.7-1.6 35.3-8 53-5.8s35.3 12.8 53 14.3 35.3-6.1 53-13.3 35.3-13.8 53-9.3 35.3 20.1 53 27.3 35.3 5.8 44.2 5.2l8.8-.7V0H0Z"/><path fill="#171f3a" d="m0 78 8.8-1c8.9-1 26.5-3 44.2-2.7 17.7.4 35.3 3 53 6.2s35.3 6.8 53 7 35.3-3.2 53-5.2 35.3-2.6 53 .4 35.3 9.6 53 9.6 35.3-6.6 53-6.5c17.7.2 35.3 7.2 52.8 8 17.5.9 34.9-4.5 52.4-8.1C493.7 82 511.3 80 529 81s35.3 5 53 8.5 35.3 6.5 53 2.3c17.7-4.1 35.3-15.5 53-14.6 17.7.8 35.3 13.8 53 15.1 17.7 1.4 35.3-9 53-14.3s35.3-5.7 53-2.5 35.3 9.8 44.2 13.2L900 92V0H0Z"/><path fill="#12182e" d="m0 87 8.8 1.5C17.7 90 35.3 93 53 88.3c17.7-4.6 35.3-17 53-17.8s35.3 9.8 53 12.2c17.7 2.3 35.3-3.7 53-6.9 17.7-3.1 35.3-3.5 53-.1 17.7 3.3 35.3 10.3 53 9 17.7-1.4 35.3-11 53-13.9 17.7-2.8 35.3 1.2 52.8 2 17.5.9 34.9-1.5 52.4-1.8s35.1 1.3 52.8 4.3 35.3 7.4 53 4.4 35.3-13.4 53-12.7 35.3 12.3 53 19 35.3 8.3 53 5.3 35.3-10.6 53-10.6 35.3 7.6 53 7.8 35.3-7.2 44.2-10.8L900 74V0H0Z"/><path fill="#0d1123" d="M0 82h8.8c8.9 0 26.5 0 44.2-3.7 17.7-3.6 35.3-11 53-12.5s35.3 2.9 53 3.7 35.3-1.8 53-6.3 35.3-10.9 53-11.9 35.3 3.4 53 3.9 35.3-2.9 53-4.5c17.7-1.7 35.3-1.7 52.8 1.8s34.9 10.5 52.4 12.8c17.5 2.4 35.1 0 52.8-3.6 17.7-3.7 35.3-8.7 53-7 17.7 1.6 35.3 10 53 10.6 17.7.7 35.3-6.3 53-8.8s35.3-.5 53 3.5 35.3 10 53 8 35.3-12 53-15.2c17.7-3.1 35.3.5 44.2 2.4L900 57V0H0Z"/><path fill="#0d1021" d="m0 38 8.8 4.2c8.9 4.1 26.5 12.5 44.2 15s35.3-.9 53-2c17.7-1.2 35.3-.2 53 .8s35.3 2 53 3.3c17.7 1.4 35.3 3 53 3.2s35.3-1.2 53-.8c17.7.3 35.3 2.3 53 3.5 17.7 1.1 35.3 1.5 52.8-2.5s34.9-12.4 52.4-16.9 35.1-5.1 52.8-2.6 35.3 8.1 53 9.6 35.3-1.1 53 0c17.7 1.2 35.3 6.2 53 8 17.7 1.9 35.3.5 53-3.8s35.3-11.7 53-11.7 35.3 7.4 53 7.4 35.3-7.4 44.2-11L900 38V0H0Z"/><path fill="#0c0f1f" d="m0 43 8.8-1c8.9-1 26.5-3 44.2-3.3 17.7-.4 35.3 1 53 .5s35.3-2.9 53-3.7 35.3-.2 53 1.3 35.3 3.9 53 3c17.7-.8 35.3-4.8 53-6.5 17.7-1.6 35.3-1 53-1.8s35.3-3.2 52.8-3.3c17.5-.2 34.9 1.8 52.4 2.8s35.1 1 52.8 4.2c17.7 3.1 35.3 9.5 53 10.6 17.7 1.2 35.3-2.8 53-5.3s35.3-3.5 53-3 35.3 2.5 53 3 35.3-.5 53-2 35.3-3.5 53-3.3c17.7.1 35.3 2.5 44.2 3.6L900 40V0H0Z"/><path fill="#0c0e1e" d="m0 33 8.8.8c8.9.9 26.5 2.5 44.2.4 17.7-2.2 35.3-8.2 53-9 17.7-.9 35.3 3.5 53 4.1 17.7.7 35.3-2.3 53-4 17.7-1.6 35.3-2 53-3.5s35.3-4.1 53-3.1 35.3 5.6 53 9.6 35.3 7.4 52.8 5.7 34.9-8.3 52.4-11.7c17.5-3.3 35.1-3.3 52.8-3.6 17.7-.4 35.3-1 53 2.1C599.7 24 617.3 31 635 32s35.3-4 53-6.2c17.7-2.1 35.3-1.5 53 .5s35.3 5.4 53 4.2 35.3-6.8 53-6.8 35.3 5.6 44.2 8.5L900 35V0H0Z"/><path fill="#0b0d1c" d="m0 9 8.8 1.3c8.9 1.4 26.5 4 44.2 3.5s35.3-4.1 53-3c17.7 1.2 35.3 7.2 53 8.4 17.7 1.1 35.3-2.5 53-5s35.3-3.9 53-4.2 35.3.3 53 .2c17.7-.2 35.3-1.2 53-1.5 17.7-.4 35.3 0 52.8 1.1 17.5 1.2 34.9 3.2 52.4 3.5 17.5.4 35.1-1 52.8.2s35.3 4.8 53 5.8 35.3-.6 53-1.1 35.3.1 53 .1 35.3-.6 53-.8 35.3.2 53 .3c17.7.2 35.3.2 53-1.1 17.7-1.4 35.3-4 44.2-5.4L900 10V0H0Z"/></svg>